<svg width="158" height="48" viewBox="0 0 158 48" fill="none" xmlns="http://www.w3.org/2000/svg">
<g clip-path="url(#clip0_1206_874)">
<path d="M14.5428 6.37834C17.961 6.37834 20.7275 8.73721 21.4345 12.0068H28.5968C28.2156 8.63095 26.7524 5.78939 24.0904 3.59142C21.4345 1.39346 18.2315 0.3218 14.4874 0.3218C10.31 0.3218 6.83642 1.60901 4.12214 4.18038C1.3556 6.8064 0 10.073 0 14.0955C0 18.118 1.3556 21.3846 4.12214 23.956C6.83642 26.5274 10.3069 27.8146 14.4874 27.8146C18.2315 27.8146 21.4345 26.7429 24.0904 24.548C26.7493 22.35 28.2156 19.5631 28.5968 16.1872H21.4898C20.7828 19.4568 17.964 21.7611 14.5428 21.7611C10.3653 21.7611 7.26984 18.5461 7.26984 14.0985C7.26984 9.651 10.2546 6.38138 14.5428 6.38138V6.37834Z" fill="white"/>
<path d="M69.6522 6.75175V0.859149H62.5975V27.3319H69.6522V14.5782C69.6522 9.86351 73.4485 6.9673 79.3658 6.9673V0C74.9701 0 71.5519 2.46512 69.6522 6.75175Z" fill="white"/>
<path d="M94.1668 0.3218C89.9893 0.3218 86.5158 1.609 83.8015 4.18038C81.0319 6.8064 79.6763 10.076 79.6763 14.0925C79.6763 18.1089 81.0319 21.3816 83.8015 23.9529C86.5158 26.5243 89.9862 27.8115 94.1668 27.8115C97.4743 27.8115 100.459 26.9008 103.066 25.0246C105.669 23.1484 107.354 20.7926 108.113 17.8964H101.006C99.9734 20.3099 97.3145 22.1284 94.2221 22.1284C90.5334 22.1284 87.6039 19.7179 86.7371 16.2328H108.387C108.547 15.6438 108.605 14.9486 108.605 14.1441C108.55 10.1246 107.194 6.80336 104.483 4.17734C101.769 1.60597 98.3504 0.318764 94.1729 0.318764M87.0045 10.9321C88.145 7.9327 90.9115 6.0019 94.2221 6.0019C97.5327 6.0019 100.625 7.98431 101.71 10.9321H87.0045Z" fill="white"/>
<path d="M131.457 0.69825H126.664L113.96 18.367V21.2905H127.445V27.3319H131.46V21.2905H136.215V17.9814H131.46V0.69825H131.457ZM127.445 17.9784H118.014L127.485 5.1215L127.445 17.9784Z" fill="white"/>
<path d="M143.267 24.0228C143.307 23.5613 143.383 23.1363 143.54 22.7143C143.851 21.9068 144.902 20.9444 145.372 20.4799C145.606 20.2492 146.113 19.9001 146.854 19.4417C147.595 18.9802 148.062 18.6736 148.259 18.5552C148.455 18.4398 149.036 18.0937 149.934 17.5928C152.233 16.2449 153.401 15.4374 155.117 13.8587C156.792 12.2801 157.61 10.3553 157.61 8.0845C157.61 5.81367 156.752 3.96483 155.077 2.50458C153.401 1.07773 151.219 0.349121 148.606 0.349121C145.993 0.349121 143.774 1.08076 142.059 2.58351C140.343 4.08627 139.406 6.12333 139.292 8.70078H143.15C143.347 5.50401 145.566 3.65821 148.526 3.65821C151.486 3.65821 153.632 5.54652 153.632 8.27575C153.632 11.2388 151.293 13.2789 146.968 15.7834C145.953 16.3603 145.176 16.8217 144.668 17.1708C144.161 17.5169 143.46 18.0178 142.566 18.7495C141.668 19.4811 141.007 20.2128 140.58 20.8655C139.646 22.2529 138.788 24.4842 138.788 26.9463V27.3319H158.003V24.0228H143.27H143.267Z" fill="white"/>
<path d="M45.6263 27.8297V25.7866H38.3227C40.4468 27.0829 42.9489 27.8297 45.6263 27.8297Z" fill="#48DE93"/>
<path d="M45.6263 0.306625C42.9459 0.306625 40.4437 1.05345 38.3227 2.34976H45.6263V0.306625Z" fill="#48DE93"/>
<path d="M45.6263 21.4635V6.67586H33.8716C33.4536 7.3225 33.0909 8.00253 32.7865 8.71899H40.4683C39.2725 9.84226 38.4549 11.3541 38.2151 13.0481H31.7291C31.7045 13.3851 31.6922 13.7251 31.6922 14.0651C31.6922 14.4052 31.7045 14.7512 31.7291 15.0882H38.2151C38.4518 16.7853 39.2695 18.2941 40.4683 19.4174H32.7896C33.0939 20.1308 33.4597 20.8139 33.8778 21.4605H45.6294L45.6263 21.4635Z" fill="#48DE93"/>
<path d="M45.6263 21.4635C49.7608 21.4635 53.1114 18.1545 53.1114 14.0712C53.1114 9.98799 49.7608 6.6789 45.6263 6.6789V0.303589C53.3204 0.303589 59.5605 6.46335 59.5605 14.0652C59.5605 21.6669 53.3235 27.8267 45.6263 27.8267V21.4605V21.4635Z" fill="white"/>
<path d="M67.4574 36.9859H66.1172L62.5975 45.4043H64.0115L64.7185 43.6466H67.8355L68.4441 42.6265L69.563 45.4043H70.9647L67.4543 36.9859H67.4574ZM65.2165 42.4171L66.775 38.5463H66.7996L68.358 42.4171H65.2165ZM78.3299 42.0588H82.0924C81.8495 43.4401 80.62 44.2932 79.2797 44.2932C77.5522 44.2932 76.2119 42.9119 76.2119 41.1784C76.2119 39.4449 77.5522 38.0758 79.3043 38.0758C80.5339 38.0758 81.5821 38.7983 81.8372 39.7334H83.2851C82.9438 38.0272 81.2747 36.825 79.292 36.825C76.8329 36.825 74.8256 38.7831 74.8256 41.1784C74.8256 43.5737 76.7745 45.5318 79.2428 45.5318C81.5698 45.5318 83.5033 43.8135 83.5033 41.3211V40.9598H78.9754L78.3299 42.0528V42.0588ZM90.103 42.4565V36.9829H88.6429L84.4777 42.5506V43.595H88.8458V45.3983H90.0999V43.595H91.0252L91.7076 42.4535H90.0999L90.103 42.4565ZM88.8458 42.4565H85.901L88.8089 38.5858H88.8458V42.4565ZM96.5429 42.5992C97.5788 41.397 98.3073 40.5075 98.3073 39.3053C98.3073 37.8268 97.1884 36.8523 95.4947 36.8523C93.6934 36.8523 92.5222 37.9574 92.5007 39.7242H93.8532C93.8778 38.6769 94.4987 38.0545 95.5224 38.0545C96.4353 38.0545 96.9825 38.5585 96.9825 39.3174C96.9825 40.0764 96.423 40.8445 95.6423 41.734L92.4638 45.4013H98.3196V44.1991H95.1781L96.5398 42.5992H96.5429ZM107.062 38.0788C108.365 38.0788 109.567 38.8742 109.825 40.1614H111.224C110.87 38.0576 109.008 36.8311 107.047 36.8311C104.575 36.8311 102.614 38.7892 102.614 41.1815C102.614 43.5737 104.55 45.5227 107.047 45.5349C109.029 45.547 110.87 44.2963 111.224 42.2288H109.825C109.592 43.4432 108.448 44.2841 107.074 44.2841C105.322 44.2841 104.006 42.9149 104.006 41.1815C104.006 39.448 105.322 38.0788 107.062 38.0788ZM115.5 39.6332C113.76 39.6332 112.457 40.8961 112.457 42.578C112.457 44.2598 113.76 45.5349 115.5 45.5349C117.24 45.5349 118.543 44.2477 118.543 42.578C118.543 40.9082 117.243 39.6332 115.5 39.6332ZM115.5 44.4055C114.442 44.4055 113.748 43.6132 113.748 42.578C113.748 41.5427 114.439 40.7625 115.5 40.7625C116.56 40.7625 117.24 41.5458 117.24 42.578C117.24 43.6101 116.554 44.4055 115.5 44.4055ZM126.87 39.6301C125.982 39.6301 125.238 40.04 124.888 40.7504H124.851C124.522 40.0309 123.827 39.6301 123.022 39.6301C122.216 39.6301 121.562 40.0035 121.27 40.6289H121.208V40.1857C121.196 39.9094 121.036 39.7637 120.769 39.7637H119.979V45.4043H121.245V42.3381C121.245 41.3545 121.841 40.7747 122.644 40.7747C123.384 40.7747 123.849 41.2665 123.849 42.3017V45.4043H125.115V42.3381C125.115 41.3545 125.761 40.7747 126.514 40.7747C127.267 40.7747 127.731 41.2665 127.731 42.3017V45.4043H128.997V41.9769C128.997 40.5075 128.171 39.6332 126.867 39.6332L126.87 39.6301ZM133.894 39.6332C133.067 39.6332 132.299 39.9823 131.97 40.6077H131.924L131.912 40.1857C131.912 39.9094 131.755 39.7667 131.475 39.7667H130.685V48.003H131.952V44.5634H131.998C132.327 45.1888 133.095 45.5379 133.91 45.5379C135.48 45.5379 136.71 44.2507 136.71 42.581C136.71 40.9113 135.48 39.6362 133.897 39.6362L133.894 39.6332ZM133.667 44.4055C132.609 44.4055 131.915 43.6132 131.915 42.578C131.915 41.5427 132.609 40.7625 133.667 40.7625C134.724 40.7625 135.419 41.5458 135.419 42.578C135.419 43.6101 134.724 44.4055 133.667 44.4055ZM142.895 39.7637C142.615 39.7637 142.467 39.9064 142.458 40.1827L142.446 40.6046H142.409C142.068 39.9793 141.312 39.6301 140.472 39.6301C138.889 39.6301 137.66 40.8931 137.66 42.578C137.66 44.2629 138.889 45.5349 140.472 45.5349C141.312 45.5349 142.068 45.1858 142.409 44.5604H142.446L142.52 45.4013H143.675V39.7637H142.898H142.895ZM140.703 44.4055C139.646 44.4055 138.951 43.6132 138.951 42.578C138.951 41.5427 139.646 40.7625 140.703 40.7625C141.76 40.7625 142.455 41.5458 142.455 42.578C142.455 43.6101 141.76 44.4055 140.703 44.4055ZM148.64 39.6301C147.739 39.6301 147.032 39.9914 146.719 40.6289H146.673V40.1857C146.66 39.9094 146.5 39.7637 146.233 39.7637H145.443V45.4043H146.709V42.3381C146.709 41.3636 147.327 40.7747 148.28 40.7747C149.156 40.7747 149.633 41.2665 149.633 42.3017V45.4043H150.899V42.0011C150.899 40.5105 150.06 39.6332 148.646 39.6332V39.6301H148.64ZM154.886 44.0078L154.849 43.9957L153.18 39.7637H151.828L153.884 44.6697H154.493L152.993 48H154.345L157.997 39.7667H156.635L154.883 44.0109L154.886 44.0078Z" fill="white"/>
</g>
<defs>
<clipPath id="clip0_1206_874">
<rect width="158" height="48" fill="white"/>
</clipPath>
</defs>
</svg>
