<svg viewBox="0 0 1800 420" fill="none" xmlns="http://www.w3.org/2000/svg">
<path d="M61.7967 23.5661C35.8382 27.329 15.8655 47.7824 12.4281 74.2444C10.2352 91.4204 16.4582 109.75 28.7262 122.192C44.7281 138.457 68.5531 143.737 89.5925 135.605L94.9265 133.602L126.456 172.081C143.762 193.263 158.045 210.742 158.104 210.985C158.223 211.349 98.2454 284.969 95.5784 287.7C94.6302 288.732 94.3931 288.671 90.9557 287.275C74.1241 280.357 56.522 281.692 39.9275 291.281C33.9417 294.741 23.8664 304.876 20.429 310.946C11.5391 326.665 9.82036 343.538 15.4506 360.046C21.318 377.465 36.4308 391.849 54.0329 396.826C84.1401 405.201 115.136 387.722 124.263 357.072C125.804 351.974 125.923 350.881 125.923 340.988C125.923 331.156 125.804 329.942 124.322 325.026C122.604 319.382 119.818 313.252 116.914 308.882L115.136 306.151L121.181 298.868C124.5 294.801 137.717 278.718 150.577 262.998C163.379 247.279 174.284 233.987 174.817 233.38C175.765 232.409 176.773 233.563 192.064 252.317L208.362 272.345H225.727L243.151 272.406L241.373 270.099C240.365 268.886 211.621 233.745 177.425 192.049L115.255 116.244L117.803 112.299C126.1 99.3105 128.767 81.9524 124.797 66.415C119.64 46.1437 103.164 29.8174 82.8955 24.7799C77.2059 23.384 67.1899 22.7771 61.7967 23.5661Z" fill="#5C0FC9"/>
<path d="M488.809 23.6272C466.051 26.0549 446.789 42.4419 440.033 65.141C438.492 70.2391 438.373 71.3316 438.373 81.2245C438.373 91.0567 438.492 92.2706 439.974 97.1867C441.692 102.831 444.478 108.961 447.382 113.331L449.16 116.062L446.434 119.461C444.893 121.282 431.262 137.972 416.089 156.423L388.59 189.986L387.049 188.226C386.219 187.255 378.693 178.09 370.277 167.833L354.986 149.2H338.155C328.85 149.2 321.264 149.443 321.264 149.686C321.264 149.989 350.008 185.252 385.153 228.101L448.982 306.03L446.493 309.975C438.196 322.903 435.529 340.261 439.5 355.798C444.715 376.191 460.954 392.274 481.697 397.554C489.461 399.557 501.314 399.375 509.434 397.19C532.132 391.121 548.727 371.821 551.868 347.969C554.061 330.793 547.838 312.463 535.57 300.021C519.568 283.756 495.743 278.476 474.704 286.608L469.37 288.611L437.84 250.193C420.475 229.011 406.311 211.471 406.311 211.167C406.311 210.864 420.534 193.263 437.959 172.021C462.198 142.403 469.844 133.481 470.555 133.784C489.105 141.978 506.885 141.007 524.369 130.932C530.354 127.472 540.43 117.337 543.867 111.267C552.757 95.548 554.476 78.6754 548.845 62.167C542.978 44.7482 527.865 30.3641 510.263 25.3873C506.529 24.3555 495.921 22.8382 494.024 23.081C493.728 23.081 491.357 23.3237 488.809 23.6272Z" fill="#5C0FC9"/>
<path d="M214.644 142.524C202.85 156.908 193.249 168.743 193.249 168.864C193.249 169.289 209.902 189.561 210.376 189.682C210.554 189.743 221.044 177.179 233.668 161.763C252.574 138.7 256.426 133.602 255.715 133.116C255.182 132.752 252.752 131.174 250.263 129.536C247.714 127.836 243.506 124.255 240.839 121.463L236.039 116.426L214.644 142.524Z" fill="#5C0FC9"/>
<path d="M330.805 260.45C312.136 283.149 307.929 288.611 308.64 289.097C309.114 289.4 311.544 291.039 314.033 292.678C316.581 294.377 320.789 297.958 323.456 300.75L328.257 305.787L349.711 279.689C363.402 262.938 370.928 253.288 370.632 252.802C370.158 252.013 359.134 238.54 355.816 234.655L353.86 232.349L330.805 260.45Z" fill="#5C0FC9"/>
<ellipse cx="281.998" cy="339.62" rx="57.389" ry="59.33" fill="#5C0FC9"/>
<ellipse cx="281.998" cy="82.7093" rx="57.389" ry="58.7703" fill="#5C0FC9"/>
<path d="M668.632 254.8V171.2C668.632 129.067 689.699 108 731.832 108H799.832V22H846.632V318H731.832C689.699 318 668.632 296.933 668.632 254.8ZM715.432 258.8C715.432 271.067 721.565 277.2 733.832 277.2H799.832V148.8H733.832C721.565 148.8 715.432 154.933 715.432 167.2V258.8ZM938.598 318C896.464 318 875.398 297.2 875.398 255.6C875.398 214 896.464 193.2 938.598 193.2H1000.2V167.2C1000.2 154.933 994.064 148.8 981.798 148.8H896.998V123.6L917.798 108H984.198C1026.06 108 1047 129.067 1047 171.2V318H938.598ZM922.198 258.8C922.198 271.067 928.331 277.2 940.598 277.2H1000.2V229.6H940.598C928.331 229.6 922.198 235.6 922.198 247.6V258.8ZM1085.35 398V108H1200.55C1242.41 108 1263.35 129.067 1263.35 171.2V254.8C1263.35 296.933 1242.41 318 1200.55 318H1132.15V398H1085.35ZM1132.15 277.2H1198.15C1210.41 277.2 1216.55 271.067 1216.55 258.8V167.2C1216.55 154.933 1210.41 148.8 1198.15 148.8H1132.15V277.2ZM1300.11 398V108H1415.31C1457.18 108 1478.11 129.067 1478.11 171.2V254.8C1478.11 296.933 1457.18 318 1415.31 318H1346.91V398H1300.11ZM1346.91 277.2H1412.91C1425.18 277.2 1431.31 271.067 1431.31 258.8V167.2C1431.31 154.933 1425.18 148.8 1412.91 148.8H1346.91V277.2ZM1513.28 248.4V22H1560.08V253.2C1560.08 270.533 1568.88 279.867 1586.48 281.2V321.6C1537.68 321.6 1513.28 297.2 1513.28 248.4ZM1608.48 254.8V171.2C1608.48 129.067 1629.54 108 1671.68 108H1723.68C1765.54 108 1786.48 129.067 1786.48 171.2V230.4H1655.28V258.8C1655.28 271.067 1661.41 277.2 1673.68 277.2H1778.48V302.4L1757.28 318H1671.68C1629.54 318 1608.48 296.933 1608.48 254.8ZM1655.28 194H1739.68V167.2C1739.68 154.933 1733.54 148.8 1721.28 148.8H1673.68C1661.41 148.8 1655.28 154.933 1655.28 167.2V194Z" fill="#1A1A1A"/>
</svg>
